<svg xmlns="http://www.w3.org/2000/svg" viewBox="0 0 55.85 81.76"><defs><style>.cls-1,.cls-4{fill:#009fe3;}.cls-2{font-size:12px;fill:#1d1d1b;font-family:Raleway-Bold, Raleway;font-weight:700;}.cls-3{letter-spacing:-0.02em;}.cls-4{font-size:5.61px;font-family:Raleway-Light, Raleway;font-weight:300;}.cls-5{letter-spacing:-0.11em;}.cls-6{letter-spacing:-0.01em;}.cls-7{letter-spacing:0em;}.cls-8{letter-spacing:-0.01em;}.cls-9{letter-spacing:-0.03em;}.cls-10{fill:none;stroke:#fff;stroke-miterlimit:10;stroke-width:1.5px;}</style></defs><title>Logo 1</title><g id="Layer_2" data-name="Layer 2"><g id="Layer_1-2" data-name="Layer 1"><path class="cls-1" d="M51.24,9.17A31,31,0,0,1,33.71,3.38C32.14,2.3,30.23,0,28.18,0s-4,2.3-5.53,3.38A31,31,0,0,1,5.11,9.17h-1C4.13,26,12,42.3,26.58,55.92l1.6,1.49,1.6-1.49C44.37,42.3,52.23,26,52.23,9.17Z"/><text class="cls-2" transform="translate(0 72.17)"><tspan class="cls-3">E</tspan><tspan x="7" y="0">-RIGHTS</tspan></text><text class="cls-4" transform="translate(6.94 80.51)"><tspan class="cls-5">T</tspan><tspan x="2.76" y="0">eaching Pri</tspan><tspan class="cls-6" x="31.18" y="0">v</tspan><tspan class="cls-7" x="34.07" y="0">a</tspan><tspan class="cls-8" x="37.08" y="0">c</tspan><tspan class="cls-9" x="40.1" y="0">y</tspan></text><path class="cls-10" d="M36.51,39H19.84a1.25,1.25,0,0,1-1.26-1.26V21.09a1.26,1.26,0,0,1,1.26-1.27H36.51a1.27,1.27,0,0,1,1.27,1.27V37.76A1.26,1.26,0,0,1,36.51,39Z"/><path class="cls-10" d="M34.64,19.82c0-.2,0-.39,0-.59,0-4.53-2.9-8.2-6.48-8.2s-6.49,3.67-6.49,8.2c0,.2,0,.39,0,.59"/><path class="cls-10" d="M30.91,26.33a2.74,2.74,0,1,0-4.25,2.28v3.05a1.52,1.52,0,0,0,3,0V28.61A2.73,2.73,0,0,0,30.91,26.33Z"/></g></g></svg>