<svg xmlns="http://www.w3.org/2000/svg" viewBox="0 0 135.69 56.9"><defs><style>.cls-1{fill:#1d1d1b;}.cls-2{fill:#009fe3;}.cls-3{fill:none;stroke:#fff;stroke-miterlimit:10;stroke-width:1.5px;}</style></defs><title>Asset 10</title><g id="Layer_2" data-name="Layer 2"><g id="Layer_1-2" data-name="Layer 1"><path class="cls-1" d="M59.36,29.38v2.28H50.08V18.3h9.11v2.28H52.68v3.21H58.3V25.9H52.68v3.48Z"/><path class="cls-1" d="M60.75,27.63V25.36h5.7v2.27Z"/><path class="cls-1" d="M68.92,31.66V18.3h5.9a3.73,3.73,0,0,1,1.7.39,4.24,4.24,0,0,1,1.35,1,4.68,4.68,0,0,1,.88,1.43,4.2,4.2,0,0,1,.32,1.61,4.45,4.45,0,0,1-.64,2.36,3.8,3.8,0,0,1-1.76,1.54l3,5H76.8l-2.73-4.48H71.51v4.48Zm2.59-6.76h3.26a1.37,1.37,0,0,0,.66-.16,1.73,1.73,0,0,0,.54-.47,2.31,2.31,0,0,0,.36-.68,3,3,0,0,0,.13-.85,2.49,2.49,0,0,0-.15-.87,2.2,2.2,0,0,0-.41-.68,1.66,1.66,0,0,0-.58-.45,1.47,1.47,0,0,0-.67-.16H71.51Z"/><path class="cls-1" d="M81.43,31.66V18.3H84V31.66Z"/><path class="cls-1" d="M96.08,30.15a5.08,5.08,0,0,1-3.72,1.6,5.93,5.93,0,0,1-2.48-.52,6.46,6.46,0,0,1-2-1.45,6.91,6.91,0,0,1-1.35-2.18,7,7,0,0,1-.5-2.7,6.59,6.59,0,0,1,.5-2.58,6.77,6.77,0,0,1,1.37-2.13A6.56,6.56,0,0,1,90,18.74a6.3,6.3,0,0,1,2.58-.53,6.2,6.2,0,0,1,3.22.79,5.05,5.05,0,0,1,2,2.12l-1.94,1.43A3.6,3.6,0,0,0,94.42,21a3.93,3.93,0,0,0-2-.53,3.37,3.37,0,0,0-1.55.36,3.55,3.55,0,0,0-1.2,1,4.38,4.38,0,0,0-.77,1.43,5.34,5.34,0,0,0,0,3.47,4.54,4.54,0,0,0,.83,1.42,3.88,3.88,0,0,0,1.25.95,3.61,3.61,0,0,0,1.57.35,4.54,4.54,0,0,0,3.5-1.83v-.94H93.39v-1.9h4.84v6.87H96.08Z"/><path class="cls-1" d="M111.68,18.3V31.66H109.1V26H103v5.7h-2.59V18.3H103v5.4h6.06V18.3Z"/><path class="cls-1" d="M124.45,20.58h-4.27V31.66h-2.57V20.58h-4.27V18.3h11.11Z"/><path class="cls-1" d="M134.07,21.8a3.23,3.23,0,0,0-.48-.36,5.55,5.55,0,0,0-.85-.44,7.59,7.59,0,0,0-1.08-.37,4.73,4.73,0,0,0-1.19-.15,2.59,2.59,0,0,0-1.59.4,1.28,1.28,0,0,0-.53,1.11,1.17,1.17,0,0,0,.2.69,1.6,1.6,0,0,0,.57.47,4.57,4.57,0,0,0,.95.38l1.33.36c.65.17,1.24.36,1.78.56a4.61,4.61,0,0,1,1.35.76,3.22,3.22,0,0,1,.86,1.08,3.6,3.6,0,0,1,.3,1.55,3.81,3.81,0,0,1-.41,1.83,3.44,3.44,0,0,1-1.09,1.24,4.7,4.7,0,0,1-1.58.68,7.66,7.66,0,0,1-1.87.22,10,10,0,0,1-3-.45,9.25,9.25,0,0,1-2.64-1.28l1.15-2.24a3.76,3.76,0,0,0,.61.44,9.85,9.85,0,0,0,1,.55,9.14,9.14,0,0,0,1.34.46,6.31,6.31,0,0,0,1.51.19c1.43,0,2.14-.46,2.14-1.38a1.13,1.13,0,0,0-.24-.73,2.19,2.19,0,0,0-.7-.53,6.1,6.1,0,0,0-1.09-.41L129.46,26a12.86,12.86,0,0,1-1.67-.58,4.41,4.41,0,0,1-1.17-.73,2.71,2.71,0,0,1-.71-1,3.52,3.52,0,0,1-.23-1.33,4.11,4.11,0,0,1,.37-1.8,3.58,3.58,0,0,1,1-1.32,4.65,4.65,0,0,1,1.55-.8,6.46,6.46,0,0,1,1.9-.27,7.28,7.28,0,0,1,2.6.44,9.53,9.53,0,0,1,2.07,1Z"/><path class="cls-2" d="M54.67,38.88H52.38v5.85h-.45V38.88H49.64v-.4h5Z"/><path class="cls-2" d="M56.45,44.81a2.19,2.19,0,0,1-.9-.18,2.22,2.22,0,0,1-.72-.52,2.42,2.42,0,0,1-.47-.77,2.42,2.42,0,0,1,0-1.83,2.44,2.44,0,0,1,.47-.75,2.12,2.12,0,0,1,.71-.5,2,2,0,0,1,.88-.19,2.11,2.11,0,0,1,.9.19,2.43,2.43,0,0,1,.71.51,2.22,2.22,0,0,1,.47.75,2.44,2.44,0,0,1,.16.9v.11s0,.07,0,.08h-4a2,2,0,0,0,.19.74,1.87,1.87,0,0,0,.4.58,1.57,1.57,0,0,0,.56.39,1.52,1.52,0,0,0,.67.14,1.84,1.84,0,0,0,.47-.06,3.25,3.25,0,0,0,.43-.18,1.6,1.6,0,0,0,.35-.28,1.41,1.41,0,0,0,.24-.36l.39.11a1.57,1.57,0,0,1-.29.45,1.73,1.73,0,0,1-.44.36,1.93,1.93,0,0,1-.55.23A2.09,2.09,0,0,1,56.45,44.81Zm1.79-2.55a2.23,2.23,0,0,0-.18-.74,1.92,1.92,0,0,0-.39-.57,1.73,1.73,0,0,0-1.92-.38,1.64,1.64,0,0,0-.56.38,1.85,1.85,0,0,0-.39.58,2.44,2.44,0,0,0-.17.73Z"/><path class="cls-2" d="M60.76,44.81a1.44,1.44,0,0,1-.59-.11,1.66,1.66,0,0,1-.48-.29,1.42,1.42,0,0,1-.32-.45,1.34,1.34,0,0,1-.12-.56,1.15,1.15,0,0,1,.14-.55,1.45,1.45,0,0,1,.4-.42,1.77,1.77,0,0,1,.6-.29,3.06,3.06,0,0,1,.77-.1,3.81,3.81,0,0,1,.75.07,3.11,3.11,0,0,1,.67.18v-.45a1.4,1.4,0,0,0-.37-1,1.3,1.3,0,0,0-1-.39,2.13,2.13,0,0,0-.71.14,3.79,3.79,0,0,0-.76.41l-.17-.3a3,3,0,0,1,1.67-.6,1.76,1.76,0,0,1,1.31.48A1.82,1.82,0,0,1,63,41.87v2.24c0,.15.07.22.19.22v.4H63a.38.38,0,0,1-.28-.11.59.59,0,0,1-.13-.29V44a2,2,0,0,1-.81.64A2.64,2.64,0,0,1,60.76,44.81Zm.09-.35a2.18,2.18,0,0,0,.93-.19,1.58,1.58,0,0,0,.66-.51.6.6,0,0,0,.14-.35V42.6a2.94,2.94,0,0,0-.66-.19,4.08,4.08,0,0,0-.71-.06,2.47,2.47,0,0,0-.63.08,1.39,1.39,0,0,0-.48.2.94.94,0,0,0-.31.32.78.78,0,0,0-.11.42,1,1,0,0,0,.09.43,1,1,0,0,0,.24.35,1.21,1.21,0,0,0,.38.23A1.34,1.34,0,0,0,60.85,44.46Z"/><path class="cls-2" d="M64,42.42a2.49,2.49,0,0,1,.17-.91,2.22,2.22,0,0,1,.47-.75,2.12,2.12,0,0,1,.71-.5,2.09,2.09,0,0,1,.91-.19,2.12,2.12,0,0,1,1.1.28,1.81,1.81,0,0,1,.71.79l-.43.14a1.52,1.52,0,0,0-.58-.6,1.64,1.64,0,0,0-.82-.21,1.71,1.71,0,0,0-.71.15A1.72,1.72,0,0,0,65,41a2,2,0,0,0-.53,1.39,2,2,0,0,0,.15.78,2,2,0,0,0,1,1.06,1.53,1.53,0,0,0,.7.16,1.91,1.91,0,0,0,.47-.07,2.08,2.08,0,0,0,.43-.19,1.28,1.28,0,0,0,.34-.26.89.89,0,0,0,.2-.33l.43.13a1.45,1.45,0,0,1-.27.44,1.82,1.82,0,0,1-.42.36,2.06,2.06,0,0,1-.55.23,2.11,2.11,0,0,1-.62.08,2.18,2.18,0,0,1-.89-.18,2.22,2.22,0,0,1-.72-.52,2.63,2.63,0,0,1-.48-.77A2.51,2.51,0,0,1,64,42.42Z"/><path class="cls-2" d="M72.9,44.73h-.44V42.17c0-1.13-.38-1.69-1.14-1.69a1.49,1.49,0,0,0-.55.1,1.71,1.71,0,0,0-.5.3,2.2,2.2,0,0,0-.41.45,1.78,1.78,0,0,0-.26.56v2.84h-.44V38.3h.44v2.94a2.06,2.06,0,0,1,.78-.85,1.94,1.94,0,0,1,1.06-.32,1.49,1.49,0,0,1,.66.14,1.26,1.26,0,0,1,.45.41,1.64,1.64,0,0,1,.26.63,3.63,3.63,0,0,1,.09.85Z"/><path class="cls-2" d="M74.23,39.11V38.3h.44v.81Zm0,5.62V40.15h.44v4.58Z"/><path class="cls-2" d="M79.79,44.73h-.44V42.17a2.51,2.51,0,0,0-.25-1.29.87.87,0,0,0-.8-.4,1.63,1.63,0,0,0-.57.1,1.91,1.91,0,0,0-.54.3,2.29,2.29,0,0,0-.43.45,2.07,2.07,0,0,0-.27.56v2.84h-.44V40.15h.41v1.09a2.36,2.36,0,0,1,.35-.48,2.35,2.35,0,0,1,1-.61,2.35,2.35,0,0,1,.6-.08,1.14,1.14,0,0,1,1,.52,3,3,0,0,1,.31,1.51Z"/><path class="cls-2" d="M83,44.8a1.92,1.92,0,0,1-.87-.2,2.12,2.12,0,0,1-.69-.53,2.58,2.58,0,0,1-.45-.75,2.35,2.35,0,0,1-.16-.87,2.74,2.74,0,0,1,.15-.9,2.48,2.48,0,0,1,.44-.76,2.16,2.16,0,0,1,.67-.53,2.06,2.06,0,0,1,.87-.19,1.8,1.8,0,0,1,1,.31,3.23,3.23,0,0,1,.76.76v-1h.4v4.66a1.87,1.87,0,0,1-.17.82,1.73,1.73,0,0,1-.48.59,2.08,2.08,0,0,1-.68.35,2.81,2.81,0,0,1-.82.12,3.11,3.11,0,0,1-.72-.08,2.17,2.17,0,0,1-.56-.21,2,2,0,0,1-.43-.33,3,3,0,0,1-.33-.44l.3-.2a1.62,1.62,0,0,0,.74.68,2.25,2.25,0,0,0,1,.22,2.07,2.07,0,0,0,.66-.1,1.68,1.68,0,0,0,.55-.28,1.44,1.44,0,0,0,.36-.48,1.34,1.34,0,0,0,.14-.66v-1a2.16,2.16,0,0,1-.75.72A1.9,1.9,0,0,1,83,44.8Zm.1-.38a1.65,1.65,0,0,0,.57-.11,2,2,0,0,0,.87-.68,1.08,1.08,0,0,0,.18-.44V41.68a2,2,0,0,0-.28-.49,2.05,2.05,0,0,0-.4-.38,1.83,1.83,0,0,0-.48-.25,1.66,1.66,0,0,0-1.27.08,1.76,1.76,0,0,0-.55.46,2.07,2.07,0,0,0-.34.64,2.27,2.27,0,0,0-.12.72,2,2,0,0,0,.14.74,1.86,1.86,0,0,0,.39.63,1.79,1.79,0,0,0,.58.43A1.57,1.57,0,0,0,83.07,44.42Z"/><path class="cls-2" d="M88.9,44.73V38.48h2.57a1.51,1.51,0,0,1,.73.17,1.9,1.9,0,0,1,.58.44,2,2,0,0,1,.37.62,2,2,0,0,1,0,1.43,1.79,1.79,0,0,1-.36.63,1.74,1.74,0,0,1-.56.44,1.66,1.66,0,0,1-.72.16H89.35v2.36ZM89.35,42H91.5a1.28,1.28,0,0,0,.56-.12,1.4,1.4,0,0,0,.42-.35,1.64,1.64,0,0,0,.26-.49,1.85,1.85,0,0,0,.09-.58,1.62,1.62,0,0,0-.41-1.07A1.31,1.31,0,0,0,92,39a1.07,1.07,0,0,0-.53-.13h-2.1Z"/><path class="cls-2" d="M96.4,40.55a1.79,1.79,0,0,0-1.73,1.32v2.86h-.44V40.15h.43v1.13a2,2,0,0,1,.62-.79,1.63,1.63,0,0,1,.85-.35h.27Z"/><path class="cls-2" d="M97.23,39.11V38.3h.44v.81Zm0,5.62V40.15h.44v4.58Z"/><path class="cls-2" d="M100.46,44.73l-1.91-4.58H99l1.69,4.14,1.7-4.14h.43l-1.91,4.58Z"/><path class="cls-2" d="M104.71,44.81a1.4,1.4,0,0,1-.58-.11,1.35,1.35,0,0,1-.81-.74,1.51,1.51,0,0,1-.11-.56,1.15,1.15,0,0,1,.14-.55,1.41,1.41,0,0,1,.39-.42,1.86,1.86,0,0,1,.6-.29,3.2,3.2,0,0,1,.78-.1,3.71,3.71,0,0,1,.74.07,3.21,3.21,0,0,1,.68.18v-.45a1.44,1.44,0,0,0-.37-1,1.33,1.33,0,0,0-1-.39,2.13,2.13,0,0,0-.71.14,3.79,3.79,0,0,0-.76.41l-.16-.3a3,3,0,0,1,1.67-.6,1.75,1.75,0,0,1,1.3.48,1.78,1.78,0,0,1,.48,1.32v2.24c0,.15.06.22.19.22v.4H107a.39.39,0,0,1-.28-.11.5.5,0,0,1-.12-.29V44a2,2,0,0,1-.81.64A2.69,2.69,0,0,1,104.71,44.81Zm.09-.35a2.23,2.23,0,0,0,.94-.19,1.72,1.72,0,0,0,.66-.51.6.6,0,0,0,.14-.35V42.6a3.1,3.1,0,0,0-.66-.19,4.2,4.2,0,0,0-.72-.06,2.45,2.45,0,0,0-.62.08,1.44,1.44,0,0,0-.49.2,1.18,1.18,0,0,0-.31.32.88.88,0,0,0-.11.42,1,1,0,0,0,.09.43,1,1,0,0,0,.25.35,1.16,1.16,0,0,0,.37.23A1.39,1.39,0,0,0,104.8,44.46Z"/><path class="cls-2" d="M108,42.42a2.49,2.49,0,0,1,.16-.91,2.39,2.39,0,0,1,.47-.75,2.23,2.23,0,0,1,.71-.5,2.12,2.12,0,0,1,.91-.19,2.09,2.09,0,0,1,1.1.28,1.76,1.76,0,0,1,.71.79l-.43.14a1.43,1.43,0,0,0-.57-.6,1.68,1.68,0,0,0-.83-.21A1.73,1.73,0,0,0,109,41a2,2,0,0,0-.38.62,2,2,0,0,0-.14.77,2.21,2.21,0,0,0,.14.78,2.23,2.23,0,0,0,.39.63,1.86,1.86,0,0,0,.57.43,1.56,1.56,0,0,0,.7.16,1.84,1.84,0,0,0,.47-.07,1.87,1.87,0,0,0,.43-.19,1.33,1.33,0,0,0,.35-.26,1,1,0,0,0,.2-.33l.43.13a1.45,1.45,0,0,1-.27.44,1.68,1.68,0,0,1-.43.36,1.87,1.87,0,0,1-.54.23,2.15,2.15,0,0,1-.62.08,2.26,2.26,0,0,1-.9-.18,2.36,2.36,0,0,1-1.19-1.29A2.51,2.51,0,0,1,108,42.42Z"/><path class="cls-2" d="M113.36,46.28h.29a.44.44,0,0,0,.15-.05l.1-.07A1.66,1.66,0,0,0,114,46c0-.1.12-.25.2-.44s.19-.46.34-.79l-2-4.58H113l1.82,4.15,1.7-4.15h.43l-2.51,6a.72.72,0,0,1-.31.38,1.08,1.08,0,0,1-.58.14h-.16Z"/><path class="cls-2" d="M47.11,8.66a31.05,31.05,0,0,1-17.53-5.8C28,1.78,26.1,0,24.05,0s-4,1.78-5.53,2.86A31.05,31.05,0,0,1,1,8.66H0C0,25.43,7.85,41.78,22.45,55.41l1.6,1.49,1.6-1.49c14.6-13.63,22.45-30,22.45-46.75Z"/><path class="cls-3" d="M29.85,23.52a5.8,5.8,0,1,0-9,4.82V34.8a3.21,3.21,0,0,0,6.42,0V28.34A5.77,5.77,0,0,0,29.85,23.52Z"/></g></g></svg>