<svg xmlns="http://www.w3.org/2000/svg" viewBox="0 0 110.27 57.41"><defs><style>.cls-1{font-size:12px;fill:#1d1d1b;font-family:Raleway-Bold, Raleway;font-weight:700;}.cls-2{letter-spacing:-0.02em;}.cls-3{font-size:5.61px;font-family:Raleway-Light, Raleway;font-weight:300;}.cls-3,.cls-9{fill:#009fe3;}.cls-4{letter-spacing:-0.11em;}.cls-5{letter-spacing:-0.01em;}.cls-6{letter-spacing:0em;}.cls-7{letter-spacing:-0.01em;}.cls-8{letter-spacing:-0.03em;}.cls-10{fill:none;stroke:#fff;stroke-miterlimit:10;stroke-width:1.5px;}</style></defs><title>logo-horizontal_1</title><g id="Layer_2" data-name="Layer 2"><g id="Layer_1-2" data-name="Layer 1"><text class="cls-1" transform="translate(54.42 29.04)"><tspan class="cls-2">E</tspan><tspan x="7" y="0">-RIGHTS</tspan></text><text class="cls-3" transform="translate(61.36 37.38)"><tspan class="cls-4">T</tspan><tspan x="2.76" y="0">eaching Pri</tspan><tspan class="cls-5" x="31.18" y="0">v</tspan><tspan class="cls-6" x="34.07" y="0">a</tspan><tspan class="cls-7" x="37.08" y="0">c</tspan><tspan class="cls-8" x="40.1" y="0">y</tspan></text><path class="cls-9" d="M47.11,9.17A31,31,0,0,1,29.58,3.38C28,2.3,26.1,0,24.05,0s-4,2.3-5.53,3.38A31,31,0,0,1,1,9.17H0C0,26,7.85,42.3,22.45,55.92l1.6,1.49,1.6-1.49C40.25,42.3,48.1,26,48.1,9.17Z"/><path class="cls-10" d="M32.39,39H15.71a1.26,1.26,0,0,1-1.26-1.26V21.09a1.27,1.27,0,0,1,1.26-1.27H32.39a1.27,1.27,0,0,1,1.26,1.27V37.76A1.26,1.26,0,0,1,32.39,39Z"/><path class="cls-10" d="M30.51,19.82c0-.2,0-.39,0-.59,0-4.53-2.91-8.2-6.49-8.2s-6.49,3.67-6.49,8.2c0,.2,0,.39,0,.59"/><path class="cls-10" d="M26.79,26.33a2.74,2.74,0,1,0-4.25,2.28v3.05a1.51,1.51,0,1,0,3,0V28.61A2.73,2.73,0,0,0,26.79,26.33Z"/></g></g></svg>