<svg id="Layer_1" data-name="Layer 1" xmlns="http://www.w3.org/2000/svg" viewBox="0 0 153.34 57.41"><defs><style>.cls-1,.cls-4{fill:#009ee2;}.cls-2{font-size:20px;fill:#707070;font-family:Raleway-Bold, Raleway;font-weight:700;}.cls-3{letter-spacing:-0.02em;}.cls-4{font-size:9px;font-family:Raleway-Light, Raleway;font-weight:300;}.cls-5{letter-spacing:-0.11em;}.cls-6{letter-spacing:-0.01em;}.cls-7{letter-spacing:-0.01em;}.cls-8{letter-spacing:-0.03em;}.cls-9{fill:none;stroke:#fff;stroke-miterlimit:10;stroke-width:1.5px;}</style></defs><path class="cls-1" d="M703.43,351.79A31,31,0,0,1,685.9,346c-1.58-1.08-3.48-3.38-5.53-3.38s-4,2.3-5.54,3.38a31,31,0,0,1-17.53,5.79h-1c0,16.78,7.85,33.13,22.45,46.75l1.6,1.49,1.59-1.49c14.6-13.62,22.46-30,22.46-46.75Z" transform="translate(-656.32 -342.62)"/><text class="cls-2" transform="translate(60.26 32.17)"><tspan class="cls-3">E</tspan><tspan x="11.66" y="0">-RIGHTS</tspan></text><text class="cls-4" transform="translate(60.85 45.51)"><tspan class="cls-5">T</tspan><tspan x="4.43" y="0">eaching Pri</tspan><tspan class="cls-6" x="49.98" y="0">v</tspan><tspan x="54.62" y="0">a</tspan><tspan class="cls-7" x="59.45" y="0">c</tspan><tspan class="cls-8" x="64.29" y="0">y</tspan></text><path class="cls-9" d="M688.7,381.64H672a1.26,1.26,0,0,1-1.27-1.26V363.71a1.27,1.27,0,0,1,1.27-1.27H688.7a1.27,1.27,0,0,1,1.27,1.27v16.67A1.26,1.26,0,0,1,688.7,381.64Z" transform="translate(-656.32 -342.62)"/><path class="cls-9" d="M686.83,362.44c0-.2,0-.39,0-.59,0-4.53-2.9-8.2-6.48-8.2s-6.49,3.67-6.49,8.2c0,.2,0,.39,0,.59" transform="translate(-656.32 -342.62)"/><path class="cls-9" d="M683.1,369a2.74,2.74,0,1,0-4.25,2.28v3a1.52,1.52,0,0,0,3,0v-3A2.73,2.73,0,0,0,683.1,369Z" transform="translate(-656.32 -342.62)"/></svg>