<svg xmlns="http://www.w3.org/2000/svg" viewBox="0 0 103.33 56.9"><defs><style>.cls-1{fill:#1d1d1b;}.cls-2{fill:#009fe3;}.cls-3{fill:none;stroke:#fff;stroke-miterlimit:10;stroke-width:1.5px;}</style></defs><title>logo-horizontal-2</title><g id="Layer_2" data-name="Layer 2"><g id="Layer_1-2" data-name="Layer 1"><path class="cls-1" d="M54.65,27.91v1.45H48.73V20.84h5.81v1.45H50.39v2.05H54v1.35H50.39v2.22Z"/><path class="cls-1" d="M55.54,26.79V25.34h3.63v1.45Z"/><path class="cls-1" d="M60.75,29.36V20.84h3.76a2.33,2.33,0,0,1,1.09.25,2.88,2.88,0,0,1,.86.64,3,3,0,0,1,.56.92,2.66,2.66,0,0,1,.21,1,2.82,2.82,0,0,1-.42,1.51,2.37,2.37,0,0,1-1.12,1l1.94,3.2H65.77L64,26.5H62.4v2.86Zm1.65-4.31h2.08a.78.78,0,0,0,.42-.11,1.09,1.09,0,0,0,.35-.29,1.4,1.4,0,0,0,.22-.44,1.61,1.61,0,0,0,.09-.54,1.42,1.42,0,0,0-.1-.55,1.39,1.39,0,0,0-.26-.44,1.16,1.16,0,0,0-.37-.29,1.07,1.07,0,0,0-.42-.1h-2Z"/><path class="cls-1" d="M68.73,29.36V20.84h1.65v8.52Z"/><path class="cls-1" d="M78.07,28.4a3.25,3.25,0,0,1-2.37,1,3.68,3.68,0,0,1-1.58-.34,3.91,3.91,0,0,1-1.28-.92A4.2,4.2,0,0,1,72,26.77a4.62,4.62,0,0,1-.32-1.72A4.37,4.37,0,0,1,72,23.4a4.31,4.31,0,0,1,2.19-2.28,3.93,3.93,0,0,1,1.65-.34,4,4,0,0,1,2,.5,3.19,3.19,0,0,1,1.29,1.36l-1.23.91a2.31,2.31,0,0,0-.91-1,2.53,2.53,0,0,0-1.26-.34,2.19,2.19,0,0,0-1,.23,2.23,2.23,0,0,0-.77.63,2.75,2.75,0,0,0-.49.91,3.28,3.28,0,0,0-.18,1.09,3.42,3.42,0,0,0,.19,1.12,3,3,0,0,0,.53.91,2.48,2.48,0,0,0,.8.6,2.26,2.26,0,0,0,1,.23,2.88,2.88,0,0,0,2.23-1.17v-.6H76.36V25h3.08v4.38H78.07Z"/><path class="cls-1" d="M88,20.84v8.52H86.38V25.72H82.51v3.64H80.86V20.84h1.65v3.44h3.87V20.84Z"/><path class="cls-1" d="M96.17,22.29H93.45v7.07H91.8V22.29H89.08V20.84h7.09Z"/><path class="cls-1" d="M102.3,23.07a3,3,0,0,0-.3-.23,4.45,4.45,0,0,0-.54-.28,5.08,5.08,0,0,0-.69-.23,2.84,2.84,0,0,0-.76-.1,1.74,1.74,0,0,0-1,.25.83.83,0,0,0-.34.71.76.76,0,0,0,.13.44,1.05,1.05,0,0,0,.37.31,4.13,4.13,0,0,0,.6.24l.85.22c.41.12.79.24,1.13.36a3.06,3.06,0,0,1,.86.48,2.13,2.13,0,0,1,.55.69,2.27,2.27,0,0,1,.19,1,2.47,2.47,0,0,1-.25,1.17,2.23,2.23,0,0,1-.7.79,3,3,0,0,1-1,.44,5.17,5.17,0,0,1-1.19.14,6.54,6.54,0,0,1-1.9-.29,6,6,0,0,1-1.68-.82l.73-1.43a2.79,2.79,0,0,0,.39.29,5.92,5.92,0,0,0,.67.34,5,5,0,0,0,.85.3,3.83,3.83,0,0,0,1,.12c.91,0,1.37-.29,1.37-.88a.71.71,0,0,0-.16-.47,1.3,1.3,0,0,0-.44-.33,3.66,3.66,0,0,0-.7-.27l-.91-.26a6.49,6.49,0,0,1-1.06-.37,2.73,2.73,0,0,1-.75-.46,1.74,1.74,0,0,1-.45-.63,2.14,2.14,0,0,1-.15-.84,2.67,2.67,0,0,1,.24-1.16,2.38,2.38,0,0,1,.67-.84,3.15,3.15,0,0,1,1-.51,4.39,4.39,0,0,1,1.22-.17,4.61,4.61,0,0,1,1.65.28,5.82,5.82,0,0,1,1.32.67Z"/><path class="cls-2" d="M51.66,34H50.2V37.7h-.29V34H48.45v-.26h3.21Z"/><path class="cls-2" d="M52.79,37.75a1.39,1.39,0,0,1-.57-.12,1.5,1.5,0,0,1-.46-.33,1.44,1.44,0,0,1-.3-.49,1.61,1.61,0,0,1,0-1.17,1.35,1.35,0,0,1,.3-.47,1.45,1.45,0,0,1,.45-.33,1.35,1.35,0,0,1,.57-.11,1.39,1.39,0,0,1,.57.12,1.23,1.23,0,0,1,.45.32,1.5,1.5,0,0,1,.3.48,1.56,1.56,0,0,1,.11.57v.07s0,.05,0,.06H51.64a1.26,1.26,0,0,0,.12.47,1.37,1.37,0,0,0,.26.37,1.24,1.24,0,0,0,.35.25,1.07,1.07,0,0,0,.43.09.94.94,0,0,0,.3-.05.81.81,0,0,0,.27-.11,1,1,0,0,0,.23-.18.7.7,0,0,0,.15-.23L54,37a.88.88,0,0,1-.18.29,1.23,1.23,0,0,1-.28.23,2.17,2.17,0,0,1-.35.15A1.75,1.75,0,0,1,52.79,37.75Zm1.15-1.63a1.21,1.21,0,0,0-.12-.47,1.34,1.34,0,0,0-.25-.37,1.13,1.13,0,0,0-.36-.24,1,1,0,0,0-.43-.08,1,1,0,0,0-.43.08,1.26,1.26,0,0,0-.36.24,1.31,1.31,0,0,0-.24.37,1.24,1.24,0,0,0-.11.47Z"/><path class="cls-2" d="M55.54,37.75a.9.9,0,0,1-.37-.07,1.08,1.08,0,0,1-.31-.19.84.84,0,0,1-.2-.29.85.85,0,0,1-.08-.35.68.68,0,0,1,.09-.35.81.81,0,0,1,.25-.27,1.17,1.17,0,0,1,.39-.18A1.53,1.53,0,0,1,55.8,36a2.61,2.61,0,0,1,.48.05,1.8,1.8,0,0,1,.43.11v-.29a.92.92,0,0,0-.24-.66.86.86,0,0,0-.64-.24,1.29,1.29,0,0,0-.45.09,2.6,2.6,0,0,0-.49.26l-.1-.19a1.86,1.86,0,0,1,1.06-.38,1.11,1.11,0,0,1,.83.3,1.14,1.14,0,0,1,.31.85V37.3c0,.1,0,.14.12.14v.26H57a.22.22,0,0,1-.18-.08.3.3,0,0,1-.08-.18v-.24a1.3,1.3,0,0,1-.52.4A1.69,1.69,0,0,1,55.54,37.75Zm.06-.22a1.32,1.32,0,0,0,.6-.13,1.07,1.07,0,0,0,.42-.32.4.4,0,0,0,.09-.23v-.51a1.66,1.66,0,0,0-.42-.12,2.32,2.32,0,0,0-.46,0,1.62,1.62,0,0,0-.4,0,1,1,0,0,0-.31.13.64.64,0,0,0-.2.2.6.6,0,0,0-.07.27.67.67,0,0,0,.06.28.69.69,0,0,0,.16.22.57.57,0,0,0,.24.14A.72.72,0,0,0,55.6,37.53Z"/><path class="cls-2" d="M57.64,36.22a1.43,1.43,0,0,1,.11-.58,1.66,1.66,0,0,1,.29-.48,1.52,1.52,0,0,1,.46-.32,1.36,1.36,0,0,1,.58-.11,1.26,1.26,0,0,1,.7.18,1.07,1.07,0,0,1,.45.49l-.27.09a1,1,0,0,0-.9-.51,1,1,0,0,0-.44.09,1.22,1.22,0,0,0-.37.27,1.28,1.28,0,0,0-.24.39,1.33,1.33,0,0,0-.09.49,1.35,1.35,0,0,0,.09.5,1.24,1.24,0,0,0,.25.4,1.09,1.09,0,0,0,.36.28,1.14,1.14,0,0,0,.45.1,1,1,0,0,0,.3,0l.28-.11a.91.91,0,0,0,.21-.18A.41.41,0,0,0,60,37l.28.08a1,1,0,0,1-.18.28.87.87,0,0,1-.27.23,1.4,1.4,0,0,1-.74.2,1.35,1.35,0,0,1-.57-.12,1.39,1.39,0,0,1-.46-.33,1.62,1.62,0,0,1-.41-1.08Z"/><path class="cls-2" d="M63.29,37.7H63V36.07c0-.73-.25-1.09-.73-1.09a1,1,0,0,0-.35.07,1.5,1.5,0,0,0-.32.19,1.36,1.36,0,0,0-.43.65V37.7H60.9V33.6h.28v1.87a1.37,1.37,0,0,1,.5-.54,1.2,1.2,0,0,1,.68-.2.93.93,0,0,1,.42.09.67.67,0,0,1,.28.25,1.08,1.08,0,0,1,.17.41,2.23,2.23,0,0,1,.06.54Z"/><path class="cls-2" d="M64.13,34.11V33.6h.28v.51Zm0,3.59V34.78h.28V37.7Z"/><path class="cls-2" d="M67.68,37.7H67.4V36.07a1.6,1.6,0,0,0-.16-.83.57.57,0,0,0-.51-.26,1.15,1.15,0,0,0-.36.07,1.25,1.25,0,0,0-.34.19,1.28,1.28,0,0,0-.28.29,1,1,0,0,0-.17.36V37.7H65.3V34.78h.26v.69a1.29,1.29,0,0,1,.22-.3,1.38,1.38,0,0,1,.3-.24,1.4,1.4,0,0,1,.73-.2.71.71,0,0,1,.67.33,1.81,1.81,0,0,1,.2,1Z"/><path class="cls-2" d="M69.71,37.74a1.18,1.18,0,0,1-.56-.13,1.27,1.27,0,0,1-.43-.33,1.66,1.66,0,0,1-.29-.48,1.54,1.54,0,0,1-.1-.56,1.79,1.79,0,0,1,.09-.57,1.69,1.69,0,0,1,.28-.49,1.37,1.37,0,0,1,.43-.33,1.28,1.28,0,0,1,.56-.12,1.14,1.14,0,0,1,.66.19,2,2,0,0,1,.48.49v-.63h.26v3a1.21,1.21,0,0,1-.11.52,1.26,1.26,0,0,1-.3.38,1.4,1.4,0,0,1-.44.22,1.84,1.84,0,0,1-.53.08,2.06,2.06,0,0,1-.45-.05,1.29,1.29,0,0,1-.36-.14.9.9,0,0,1-.27-.21,1.46,1.46,0,0,1-.21-.28l.19-.13a1,1,0,0,0,.47.44,1.52,1.52,0,0,0,.63.14,1.54,1.54,0,0,0,.43-.06,1.31,1.31,0,0,0,.35-.19,1,1,0,0,0,.23-.3.93.93,0,0,0,.09-.42v-.64a1.41,1.41,0,0,1-.48.46A1.29,1.29,0,0,1,69.71,37.74Zm.07-.24a.92.92,0,0,0,.36-.07,1.65,1.65,0,0,0,.32-.18,1.13,1.13,0,0,0,.23-.26.63.63,0,0,0,.12-.28v-1a1.92,1.92,0,0,0-.18-.31,1.18,1.18,0,0,0-.26-.24,1.14,1.14,0,0,0-.31-.16,1,1,0,0,0-.33-.06,1,1,0,0,0-.47.11,1,1,0,0,0-.35.29,1.25,1.25,0,0,0-.22.41,1.44,1.44,0,0,0-.08.46,1.27,1.27,0,0,0,.09.47,1.18,1.18,0,0,0,.25.4,1.13,1.13,0,0,0,.37.28A1.15,1.15,0,0,0,69.78,37.5Z"/><path class="cls-2" d="M73.49,37.7v-4h1.64a1,1,0,0,1,.47.11,1.09,1.09,0,0,1,.36.28,1.28,1.28,0,0,1,.25.4,1.36,1.36,0,0,1,.08.44,1.33,1.33,0,0,1-.31.87,1.35,1.35,0,0,1-.35.28,1,1,0,0,1-.47.1H73.78V37.7Zm.29-1.77h1.37a.86.86,0,0,0,.36-.08.92.92,0,0,0,.26-.22,1,1,0,0,0,.17-.32,1.15,1.15,0,0,0,.06-.37.94.94,0,0,0-.07-.37,1.08,1.08,0,0,0-.19-.31.83.83,0,0,0-.28-.21.68.68,0,0,0-.34-.08H73.78Z"/><path class="cls-2" d="M78.27,35a1.14,1.14,0,0,0-.68.23,1.16,1.16,0,0,0-.42.61V37.7h-.28V34.78h.27v.71a1.53,1.53,0,0,1,.4-.5,1.06,1.06,0,0,1,.54-.22h.17Z"/><path class="cls-2" d="M78.81,34.11V33.6h.28v.51Zm0,3.59V34.78h.28V37.7Z"/><path class="cls-2" d="M80.87,37.7l-1.22-2.92h.29L81,37.41l1.08-2.63h.28L81.16,37.7Z"/><path class="cls-2" d="M83.58,37.75a1,1,0,0,1-.38-.07,1,1,0,0,1-.3-.19.86.86,0,0,1-.21-.29.84.84,0,0,1-.07-.35.68.68,0,0,1,.09-.35.72.72,0,0,1,.25-.27,1.11,1.11,0,0,1,.38-.18,1.59,1.59,0,0,1,.5-.07,2.59,2.59,0,0,1,.47.05,1.8,1.8,0,0,1,.43.11v-.29a1,1,0,0,0-.23-.66.88.88,0,0,0-.64-.24,1.29,1.29,0,0,0-.46.09,2.27,2.27,0,0,0-.48.26l-.11-.19a1.89,1.89,0,0,1,1.07-.38,1.13,1.13,0,0,1,.83.3,1.18,1.18,0,0,1,.3.85V37.3c0,.1,0,.14.13.14v.26H85a.25.25,0,0,1-.18-.08.37.37,0,0,1-.08-.18v-.24a1.27,1.27,0,0,1-.51.4A1.72,1.72,0,0,1,83.58,37.75Zm0-.22a1.32,1.32,0,0,0,.6-.13,1.07,1.07,0,0,0,.42-.32.4.4,0,0,0,.09-.23v-.51a1.45,1.45,0,0,0-.42-.12,2.28,2.28,0,0,0-.45,0,1.62,1.62,0,0,0-.4,0,.88.88,0,0,0-.31.13.55.55,0,0,0-.2.2.5.5,0,0,0-.07.27.87.87,0,0,0,0,.28.69.69,0,0,0,.16.22.89.89,0,0,0,.53.2Z"/><path class="cls-2" d="M85.67,36.22a1.62,1.62,0,0,1,.11-.58,1.5,1.5,0,0,1,.3-.48,1.47,1.47,0,0,1,.45-.32,1.4,1.4,0,0,1,.58-.11,1.24,1.24,0,0,1,.7.18,1.09,1.09,0,0,1,.46.49l-.28.09a1,1,0,0,0-.37-.38A1,1,0,0,0,87.1,35a1.13,1.13,0,0,0-.45.09,1.07,1.07,0,0,0-.36.27,1.14,1.14,0,0,0-.25.39,1.33,1.33,0,0,0-.09.49,1.18,1.18,0,0,0,.1.5,1.22,1.22,0,0,0,.24.4,1.25,1.25,0,0,0,.37.28,1.13,1.13,0,0,0,.44.1,1.06,1.06,0,0,0,.31,0l.27-.11a1,1,0,0,0,.22-.18A.63.63,0,0,0,88,37l.27.08a.91.91,0,0,1-.17.28,1.18,1.18,0,0,1-.27.23,1.84,1.84,0,0,1-.35.15,1.74,1.74,0,0,1-.39,0,1.4,1.4,0,0,1-.58-.12,1.35,1.35,0,0,1-.45-.33,1.56,1.56,0,0,1-.42-1.08Z"/><path class="cls-2" d="M89.09,38.68h.19l.09,0s0,0,.06,0a.6.6,0,0,0,.08-.13,1.92,1.92,0,0,0,.13-.28l.22-.5-1.31-2.92h.29L90,37.42l1.08-2.64h.28l-1.6,3.83a.56.56,0,0,1-.2.25.71.71,0,0,1-.38.09h-.1Z"/><path class="cls-2" d="M47.11,8.66a31.05,31.05,0,0,1-17.53-5.8C28,1.78,26.1,0,24.05,0s-4,1.78-5.53,2.86A31.05,31.05,0,0,1,1,8.66H0C0,25.43,7.85,41.78,22.45,55.41l1.6,1.49,1.6-1.49c14.6-13.63,22.45-30,22.45-46.75Z"/><path class="cls-3" d="M29.85,23.52a5.8,5.8,0,1,0-9,4.82V34.8a3.21,3.21,0,0,0,6.42,0V28.34A5.77,5.77,0,0,0,29.85,23.52Z"/></g></g></svg>